<mxfile host="app.diagrams.net" modified="2023-05-06T16:48:37.909Z" agent="Mozilla/5.0 (Macintosh; Intel Mac OS X 10_15_7) AppleWebKit/605.1.15 (KHTML, like Gecko) Version/16.4 Safari/605.1.15" version="21.2.9" etag="9uQgOIDthL1MY2w5cZJj" type="github">
  <diagram name="第 1 页" id="7LtuAvWctJaFLy8GmkYy">
    <mxGraphModel>
      <root>
        <mxCell id="0" />
        <mxCell id="1" parent="0" />
      </root>
    </mxGraphModel>
  </diagram>
</mxfile>
